<svg width="22" height="27" viewBox="0 0 22 27" fill="none" xmlns="http://www.w3.org/2000/svg">
<path d="M1.28507 17.0162C0.438734 15.3795 -0.0026474 13.5531 9.53674e-06 11.6988C9.53674e-06 5.44258 4.92477 0.371094 11 0.371094C17.0752 0.371094 22 5.44258 22 11.6988C22.0044 14.371 21.0872 16.958 19.4118 18.9985L19.3988 19.0152C19.3943 19.0192 19.3904 19.0245 19.3872 19.0285H19.4118L12.8842 26.165C12.6423 26.4295 12.3503 26.6402 12.0263 26.7843C11.7024 26.9284 11.3532 27.0027 11.0003 27.0027C10.6474 27.0027 10.2983 26.9284 9.97431 26.7843C9.65033 26.6402 9.35839 26.4295 9.11641 26.165L2.58824 19.0285H2.61283L2.60248 19.0159L2.60118 19.0145C2.5546 18.9572 2.50801 18.8999 2.46207 18.8413C2.01326 18.2732 1.61887 17.6618 1.28442 17.0155L1.28507 17.0162ZM10.9974 16.03C12.0271 16.03 13.0146 15.6088 13.7426 14.859C14.4707 14.1092 14.8798 13.0923 14.8798 12.032C14.8798 10.9716 14.4707 9.95473 13.7426 9.20495C13.0146 8.45518 12.0271 8.03396 10.9974 8.03396C9.96775 8.03396 8.98026 8.45518 8.25217 9.20495C7.52409 9.95473 7.11506 10.9716 7.11506 12.032C7.11506 13.0923 7.52409 14.1092 8.25217 14.859C8.98026 15.6088 9.96775 16.03 10.9974 16.03Z" fill="#323B4C"/>
</svg>
