<svg width="23" height="20" viewBox="0 0 23 20" fill="none" xmlns="http://www.w3.org/2000/svg">
<path d="M19.1667 0C20.1833 0 21.1584 0.408119 21.8772 1.13458C22.5961 1.86103 23 2.84632 23 3.87368V4.26299L11.5 10.5209L0 4.26493V3.87368C0 2.84632 0.40387 1.86103 1.12276 1.13458C1.84165 0.408119 2.81667 0 3.83333 0H19.1667ZM0 6.46324L11.0457 12.4733C11.1854 12.5492 11.3414 12.589 11.5 12.589C11.6586 12.589 11.8146 12.5492 11.9543 12.4733L23 6.46324V15.4947C23 16.5221 22.5961 17.5074 21.8772 18.2338C21.1584 18.9603 20.1833 19.3684 19.1667 19.3684H3.83333C2.81667 19.3684 1.84165 18.9603 1.12276 18.2338C0.40387 17.5074 0 16.5221 0 15.4947V6.46324Z" fill="#323B4C"/>
</svg>
