<svg width="22" height="22" viewBox="0 0 22 22" fill="none" xmlns="http://www.w3.org/2000/svg">
<path d="M7.3324 15.6353L5.43798 13.7401C5.18283 13.488 4.86001 13.3154 4.50871 13.2433C4.15741 13.1712 3.79275 13.2027 3.459 13.334L1.15018 14.2562C0.812902 14.3931 0.523695 14.6269 0.319012 14.928C0.114328 15.2292 0.00333023 15.5842 0 15.9483V20.1786C0.00196457 20.4263 0.0540142 20.6711 0.153019 20.8981C0.252024 21.1252 0.395935 21.3298 0.576088 21.4998C0.756239 21.6697 0.968906 21.8015 1.20128 21.887C1.43366 21.9726 1.68095 22.0102 1.92824 21.9976C18.1069 20.9908 21.3714 7.28463 21.9887 2.03905C22.0174 1.78145 21.9912 1.52071 21.9119 1.27396C21.8326 1.02722 21.702 0.80007 21.5286 0.607458C21.3552 0.414847 21.1431 0.261139 20.9061 0.156446C20.6691 0.051754 20.4126 -0.00155032 20.1535 4.02998e-05H16.0687C15.7042 0.00111969 15.3483 0.11127 15.0469 0.316323C14.7455 0.521376 14.5123 0.811955 14.3773 1.15068L13.4554 3.46043C13.3199 3.79299 13.2853 4.15813 13.356 4.51024C13.4267 4.86234 13.5995 5.1858 13.8529 5.44022L15.7473 7.33539C15.7473 7.33539 14.6563 14.7215 7.3324 15.6353Z" fill="#323B4C"/>
</svg>
