<svg width="23" height="24" viewBox="0 0 23 24" fill="none" xmlns="http://www.w3.org/2000/svg">
<path fill-rule="evenodd" clip-rule="evenodd" d="M14.7512 0.821693C16.974 1.46918 18.95 2.77158 20.4215 4.55896C21.8929 6.34634 22.7915 8.53573 23 10.8415H17.7429C17.4364 7.33274 16.4191 3.92308 14.7529 0.82005L14.7512 0.821693ZM17.7429 12.895H23C22.7919 15.2009 21.8937 17.3905 20.4226 19.1782C18.9514 20.9658 16.9756 22.2686 14.7529 22.9165C16.4191 19.8134 17.4364 16.4038 17.7429 12.895ZM12.1177 23.3551C14.1095 20.1961 15.3307 16.613 15.6827 12.895H7.41093C7.7629 16.613 8.98409 20.1961 10.9759 23.3551C11.3563 23.374 11.7374 23.374 12.1177 23.3551ZM8.33914 22.9148C6.11668 22.2671 4.14102 20.9645 2.66987 19.1772C1.19872 17.3898 0.300365 15.2006 0.0919991 12.895H5.34914C5.65559 16.4038 6.6729 19.8134 8.33914 22.9165V22.9148ZM5.34914 10.8415H0.0919991C0.300049 8.53564 1.19826 6.34605 2.66943 4.55837C4.1406 2.77069 6.11644 1.46792 8.33914 0.82005C6.6729 3.92308 5.65559 7.33274 5.34914 10.8415ZM12.1177 0.381407C11.7368 0.362448 11.3552 0.362448 10.9743 0.381407C8.98303 3.54059 7.76241 7.12368 7.41093 10.8415H15.6811C15.3246 7.10069 14.1006 3.51434 12.1177 0.381407Z" fill="#323B4C"/>
</svg>
